<mxfile host="app.diagrams.net" modified="2022-04-25T14:52:17.730Z" agent="5.0 (X11)" etag="pktVver4w7oZeyHNWva2" version="17.4.6" type="github">
  <diagram id="iKuJWah8Br5j5QOsv1zc" name="Page-1">
    <mxGraphModel dx="539" dy="439" grid="1" gridSize="10" guides="1" tooltips="1" connect="1" arrows="1" fold="1" page="1" pageScale="1" pageWidth="827" pageHeight="1169" math="0" shadow="0">
      <root>
        <mxCell id="0" />
        <mxCell id="1" parent="0" />
        <mxCell id="O6cKM2g2I19ZPq9_z12q-1" value="Aluno" style="rounded=0;whiteSpace=wrap;html=1;" vertex="1" parent="1">
          <mxGeometry x="320" y="290" width="120" height="60" as="geometry" />
        </mxCell>
        <mxCell id="O6cKM2g2I19ZPq9_z12q-4" value="Representante" style="rounded=0;whiteSpace=wrap;html=1;" vertex="1" parent="1">
          <mxGeometry x="600" y="290" width="120" height="60" as="geometry" />
        </mxCell>
        <mxCell id="O6cKM2g2I19ZPq9_z12q-5" value="" style="rhombus;whiteSpace=wrap;html=1;" vertex="1" parent="1">
          <mxGeometry x="480" y="280" width="80" height="80" as="geometry" />
        </mxCell>
        <mxCell id="O6cKM2g2I19ZPq9_z12q-6" value="" style="endArrow=none;html=1;rounded=0;" edge="1" parent="1" source="O6cKM2g2I19ZPq9_z12q-1" target="O6cKM2g2I19ZPq9_z12q-5">
          <mxGeometry width="50" height="50" relative="1" as="geometry">
            <mxPoint x="380" y="350" as="sourcePoint" />
            <mxPoint x="430" y="300" as="targetPoint" />
          </mxGeometry>
        </mxCell>
        <mxCell id="O6cKM2g2I19ZPq9_z12q-7" value="" style="endArrow=none;html=1;rounded=0;entryX=0;entryY=0.534;entryDx=0;entryDy=0;entryPerimeter=0;exitX=0.977;exitY=0.524;exitDx=0;exitDy=0;exitPerimeter=0;" edge="1" parent="1" source="O6cKM2g2I19ZPq9_z12q-5" target="O6cKM2g2I19ZPq9_z12q-4">
          <mxGeometry width="50" height="50" relative="1" as="geometry">
            <mxPoint x="560" y="322" as="sourcePoint" />
            <mxPoint x="620" y="320" as="targetPoint" />
          </mxGeometry>
        </mxCell>
        <mxCell id="O6cKM2g2I19ZPq9_z12q-8" value="" style="endArrow=none;html=1;rounded=0;exitX=0.977;exitY=0.474;exitDx=0;exitDy=0;exitPerimeter=0;entryX=-0.002;entryY=0.464;entryDx=0;entryDy=0;entryPerimeter=0;" edge="1" parent="1" source="O6cKM2g2I19ZPq9_z12q-5" target="O6cKM2g2I19ZPq9_z12q-4">
          <mxGeometry width="50" height="50" relative="1" as="geometry">
            <mxPoint x="558.4" y="310" as="sourcePoint" />
            <mxPoint x="600" y="310.12" as="targetPoint" />
          </mxGeometry>
        </mxCell>
      </root>
    </mxGraphModel>
  </diagram>
</mxfile>
